PathFileType	4	(X/Y/Z)	C:\Users\WrightLab\Desktop\Jo\P5V43.trc
DataRate	CameraRate	NumFrames	NumMarkers	Units	OrigDataRate	OrigDataStartFrame	OrigNumFrames
100.00	100.00	       35	19	mm	100.00	108	       860
Frame#	Time	Headset_Front			Headset_Back			Headset_Left			Headset_Right			Left_Shoulder			Right_Shoulder			Sternum			C7			Left Elbow			Right Elbow			Left Wrist			Right Wrist			Left ASIS			Right ASIS			S2			Left Knee			Right Knee			Left Ankle			Right Ankle			
		X1	Y1	Z1	X2	Y2	Z2	X3	Y3	Z3	X4	Y4	Z4	X5	Y5	Z5	X6	Y6	Z6	X7	Y7	Z7	X8	Y8	Z8	X9	Y9	Z9	X10	Y10	Z10	X11	Y11	Z11	X12	Y12	Z12	X13	Y13	Z13	X14	Y14	Z14	X15	Y15	Z15	X16	Y16	Z16	X17	Y17	Z17	X18	Y18	Z18	X19	Y19	Z19	

108	1.070										-291.54135	1507.02844	-1119.56030																-443.30264	1138.30127	-1212.45459				-325.28799	1032.17725	-1034.84473	-25.95588	913.06177	-1219.29150	-292.88196	929.02515	-1149.20178				-6.85869	471.19690	-1250.65979	-370.58514	471.57260	-1204.57361				-320.58456	71.92271	-1331.54492	
109	1.080										-292.02936	1507.07239	-1119.62964																-442.96396	1138.07385	-1210.51733				-325.76746	1032.37610	-1033.01196	-26.61909	912.85571	-1219.58228	-292.88196	929.02515	-1149.20178				-7.24316	471.58438	-1250.68555	-370.95511	471.61844	-1204.59375				-320.57114	71.92191	-1331.54370	
110	1.090										-292.52402	1506.98413	-1119.56006																-443.37097	1138.77356	-1208.02661				-325.49106	1032.22351	-1031.28467	-26.66553	913.19812	-1219.62305	-292.88196	929.02515	-1149.20178				-7.70234	471.33502	-1250.01221	-371.33148	471.54858	-1204.33459				-320.59491	71.93433	-1331.54736	
111	1.100										-292.88547	1506.90295	-1119.01001																-444.28442	1138.51404	-1206.31873				-325.77481	1032.88477	-1028.51123	-26.73212	913.18121	-1219.67334	-292.88196	929.02515	-1149.20178				-8.18860	471.06549	-1249.81946	-371.47476	471.49310	-1204.11780				-321.18118	72.96675	-1331.64368	
112	1.110										-293.37479	1506.66443	-1118.65088																-444.01657	1138.97693	-1204.50476				-326.43341	1032.71753	-1026.12573	-27.45537	913.18707	-1220.00391	-293.24194	928.93982	-1149.26709				-8.28714	471.25214	-1249.48840	-372.13071	471.23541	-1204.01575				-320.58160	71.92324	-1331.54480	
113	1.120										-293.91968	1506.42871	-1118.30029																-445.22495	1138.80005	-1202.55054				-326.70096	1032.62231	-1022.34174	-27.54970	913.35223	-1218.74536	-293.24194	928.93982	-1149.26709				-8.48513	471.68668	-1248.87561	-372.42383	471.14835	-1204.37048				-320.59897	71.92394	-1331.54626	
114	1.130										-294.57285	1506.20911	-1118.34399																-445.09680	1139.07300	-1200.65271				-326.32202	1032.48120	-1021.08990	-27.68224	913.51123	-1217.51648	-293.54547	928.77026	-1149.10522				-8.64982	471.81265	-1249.06799	-372.58685	470.77835	-1203.70630				-320.78885	71.67419	-1331.60645	
115	1.140										-295.03448	1506.13062	-1117.82776																-445.11719	1139.12219	-1199.15747				-327.01999	1032.82214	-1017.68872	-27.76236	913.50366	-1217.57678	-294.21008	928.34894	-1148.21936				-9.00848	471.39789	-1248.88086	-372.76575	470.34622	-1203.54163				-320.60941	71.93613	-1331.54883	
116	1.150										-295.54788	1505.96423	-1117.29602																-444.97745	1139.25122	-1197.06470				-327.40247	1033.77820	-1016.35919	-27.90607	914.07739	-1217.00659	-293.48587	928.33344	-1147.67236				-9.08196	471.55457	-1248.49866	-373.12518	470.45071	-1203.15710				-320.59445	71.91644	-1331.54492	
117	1.160										-296.16724	1505.72437	-1117.09802																-444.81427	1139.31763	-1194.71631				-327.02771	1034.14063	-1013.51855	-27.95725	914.83234	-1216.69287	-294.17340	928.02496	-1147.47070				-9.14883	471.54587	-1248.51196	-373.18225	469.91544	-1203.56128				-320.78830	71.66677	-1331.60535	
118	1.170										-296.75778	1505.57007	-1116.73108																-444.96329	1139.19775	-1192.79272				-326.95444	1034.01660	-1011.58240	-28.77804	914.74335	-1217.09021	-296.28641	928.79919	-1146.99390				-9.23498	471.53537	-1248.52954	-373.52814	470.02109	-1203.17090				-320.78735	71.64726	-1331.60278	
119	1.180										-297.24606	1505.67615	-1116.08313																-443.65536	1140.24792	-1189.49768				-326.96542	1034.48535	-1009.06091	-28.94062	914.71527	-1217.21240	-296.28641	928.79919	-1146.99390				-9.30727	472.06339	-1248.60791	-373.55026	470.00519	-1203.17883				-320.59360	71.91791	-1331.54504	
120	1.190										-297.79764	1505.59229	-1115.45239																-443.23325	1140.51611	-1187.37244				-326.67111	1034.87939	-1006.59918	-29.55899	914.87854	-1217.55432	-298.06296	928.86096	-1147.43665				-9.40045	472.04623	-1248.62402	-373.68585	469.88037	-1203.20239				-320.58057	71.91357	-1331.54346	
121	1.200										-298.39288	1505.43884	-1115.11755																-442.94504	1140.45532	-1185.37915				-326.70486	1035.15027	-1004.22089	-29.73115	914.89026	-1217.68347	-298.89645	928.99811	-1147.81726				-9.46403	472.02179	-1248.62891	-373.69974	469.87735	-1203.20813				-320.59613	71.91998	-1331.54553	
122	1.210										-298.97675	1505.46423	-1114.58008																-443.38016	1140.80493	-1183.76782				-327.00766	1035.35803	-1001.70496	-29.81107	914.85968	-1217.74365	-298.85538	929.10626	-1147.51892				-9.53510	472.00803	-1248.64087	-373.85092	469.73105	-1203.32031				-320.77863	71.64621	-1331.60193	
123	1.220										-299.61697	1505.33350	-1113.90759																-443.10217	1140.98315	-1181.83704				-326.72061	1035.24561	-999.85547	-30.57434	914.96497	-1218.14233	-299.27182	928.69623	-1146.95569				-9.54240	472.00253	-1248.64014	-374.40640	470.13449	-1203.11755				-320.59891	71.91955	-1331.54578	
124	1.230										-300.25931	1505.09692	-1113.26086																-442.83752	1140.70239	-1179.57300				-326.97617	1035.33716	-996.32703	-30.66086	914.94757	-1218.20740	-299.39026	928.75244	-1146.98889				-9.54288	472.04443	-1248.66052	-374.27258	469.76178	-1203.57446				-320.57196	71.88647	-1331.53918	
125	1.240										-300.84866	1505.02087	-1112.75989																-442.36670	1141.22461	-1177.64734				-326.85309	1035.43152	-994.92731	-30.86863	914.93439	-1218.36353	-299.49316	928.82947	-1147.01965				-10.01205	472.59351	-1248.51416	-374.58844	469.96460	-1203.33606				-320.77219	71.63757	-1331.60022	
126	1.250										-301.48032	1504.84412	-1111.94373																-442.27701	1141.26489	-1175.75208				-327.72113	1036.20337	-992.54065	-31.08991	915.19238	-1218.49609	-299.73737	928.75342	-1146.85291				-10.15228	472.90417	-1248.38000	-374.15829	469.39978	-1203.20251				-320.77542	71.64025	-1331.60083	
127	1.260										-302.05267	1504.83240	-1110.89233																-442.91132	1141.57983	-1173.40894				-327.54297	1037.05176	-991.73169	-31.24800	915.18951	-1218.61475	-300.29416	929.27338	-1146.39087				-10.10270	472.96661	-1248.39734	-374.60614	469.93665	-1203.17090				-320.79639	71.65007	-1331.60388	
128	1.270										-302.76364	1504.74365	-1110.60327																-443.56683	1141.60547	-1171.72119				-327.48883	1036.98169	-989.83057	-31.42244	915.16718	-1218.74585	-300.33548	929.24200	-1146.23535				-9.76940	473.48615	-1248.64050	-374.75537	469.57037	-1202.93555				-320.80316	71.65199	-1331.60474	
129	1.280										-303.34174	1504.64709	-1109.83240																-443.31006	1141.86572	-1169.87207				-327.32880	1036.84546	-986.44708	-32.08611	914.92267	-1219.08936	-300.66745	929.12421	-1146.32532				-9.74662	473.55246	-1248.66663	-374.83270	469.83841	-1203.14709				-320.79755	71.64097	-1331.60278	
130	1.290										-304.00641	1504.43591	-1108.70447																-443.33237	1141.84546	-1167.45288				-326.63116	1036.77722	-985.54169	-32.76211	915.24109	-1217.89294	-300.85651	929.03357	-1146.26233				-9.71898	473.61014	-1248.68750	-374.79813	469.87958	-1202.55408				-320.79535	71.64423	-1331.60303	
131	1.300										-304.59030	1504.63806	-1108.00562																-443.17786	1142.02490	-1165.01611				-326.19308	1036.10071	-981.03613	-33.44784	915.26257	-1218.22253	-301.10181	928.88733	-1146.30200				-9.75557	473.61710	-1248.70044	-374.89374	469.46680	-1202.30286				-320.81152	71.65294	-1331.60547	
132	1.310										-305.33823	1504.42346	-1107.37366																-442.86908	1142.25342	-1163.49353				-326.05826	1034.92517	-978.58783	-33.52111	914.79968	-1219.81396	-301.29803	928.79181	-1146.24121				-9.82304	473.57755	-1248.69885	-374.89197	469.46545	-1202.30200				-320.81955	71.65611	-1331.60657	
133	1.320										-305.99252	1504.22620	-1106.09558																-442.99164	1142.34790	-1160.54407				-326.46927	1035.70825	-976.79840	-33.64339	915.28687	-1219.11853	-301.64331	928.59515	-1146.14697				-9.85235	473.56308	-1248.69958	-375.01736	469.32983	-1202.15771				-320.81973	71.64014	-1331.60449	
134	1.330										-306.65170	1503.98865	-1104.72571																-443.05450	1142.28711	-1158.12317				-325.32751	1035.22791	-974.43671	-33.76108	914.76520	-1219.99426	-301.89514	928.40210	-1146.24194				-9.93981	473.51285	-1248.69812	-375.00015	469.31702	-1202.14880				-320.82507	71.64368	-1331.60547	
135	1.340										-307.28342	1504.10449	-1104.04504																-442.54550	1142.52087	-1155.23975				-325.36130	1035.49255	-971.93860	-33.86353	914.74213	-1220.07129	-302.68381	927.91571	-1145.54529				-9.97453	473.51050	-1248.70605	-374.92596	469.39752	-1201.72839				-320.80353	71.63057	-1331.60193	
136	1.350										-308.15762	1503.38379	-1102.94678																-441.75333	1142.81116	-1152.00732				-324.89566	1033.51160	-968.95880	-34.29733	914.42297	-1220.26379	-302.69901	927.84845	-1145.54419				-10.87373	470.15683	-1260.25891	-374.80032	469.07785	-1201.61365				-320.81409	71.64752	-1331.60498	
137	1.360										-308.96783	1503.12842	-1102.12366																-440.99963	1142.99854	-1149.26331				-324.28494	1032.98157	-966.12329	-34.36454	914.42145	-1220.31433	-301.79388	926.40552	-1145.07349				-10.96751	470.00040	-1260.83301	-374.79568	469.07440	-1201.61121				-320.81766	71.61845	-1331.60156	
138	1.370										-309.78775	1502.89563	-1101.40759																-440.58728	1142.64294	-1146.57703				-324.60196	1032.35413	-962.79120	-34.79693	914.63898	-1220.52698	-302.96115	927.25787	-1144.42993				-11.74008	470.61255	-1258.86206	-374.90631	468.98801	-1201.31653				-320.80719	71.61435	-1331.60010	
139	1.380										-310.57324	1502.81348	-1100.36096																-439.05698	1141.82092	-1144.00586				-325.03076	1033.46509	-959.84839	-35.61019	915.46680	-1218.39502	-302.79272	926.00873	-1144.35083				-11.87522	470.38663	-1259.68823	-374.77963	469.06241	-1201.60291				-320.81287	71.61687	-1331.60095	
140	1.390										-311.48404	1502.45471	-1099.39453																-438.98297	1142.32031	-1140.67432				-324.59949	1032.12146	-955.94360	-35.77755	914.97351	-1219.49512	-303.77783	926.18805	-1144.80225				-12.04573	470.02490	-1260.72144	-375.31140	469.18344	-1200.90332				-320.80347	71.60218	-1331.59827	
141	1.400										-312.35385	1501.79712	-1097.76355																-439.68726	1142.62292	-1137.52783				-323.37811	1031.08203	-952.92981	-36.57251	915.81323	-1218.90857	-304.19186	925.82349	-1144.77991				-13.01977	471.00381	-1258.82739	-375.19641	469.31680	-1200.64478				-320.82397	71.62755	-1331.60327	
142	1.410										-313.24310	1501.58533	-1096.71423																-439.22922	1142.59290	-1134.37695				-323.13321	1031.22461	-950.47339	-36.81018	915.80212	-1219.08679	-303.93015	924.61322	-1144.56323				-13.93213	470.57935	-1258.11792	-375.19809	469.31155	-1200.64490				-320.83807	71.62141	-1331.60364	
